<svg id="visual" viewBox="0 0 960 540" width="960" height="540" xmlns="http://www.w3.org/2000/svg" xmlns:xlink="http://www.w3.org/1999/xlink" version="1.1"><rect width="960" height="540" fill="#009473"></rect><g><g transform="translate(390 173)"><path d="M0 -75.7L65.5 -37.8L65.5 37.8L0 75.7L-65.5 37.8L-65.5 -37.8Z" stroke="#001829" fill="none" stroke-width="4"></path></g><g transform="translate(626 12)"><path d="M0 -72L62.4 -36L62.4 36L0 72L-62.4 36L-62.4 -36Z" stroke="#001829" fill="none" stroke-width="4"></path></g><g transform="translate(138 297)"><path d="M0 -48L41.6 -24L41.6 24L0 48L-41.6 24L-41.6 -24Z" stroke="#001829" fill="none" stroke-width="4"></path></g><g transform="translate(264 470)"><path d="M0 -42L36.4 -21L36.4 21L0 42L-36.4 21L-36.4 -21Z" stroke="#001829" fill="none" stroke-width="4"></path></g><g transform="translate(855 43)"><path d="M0 -43L37.2 -21.5L37.2 21.5L0 43L-37.2 21.5L-37.2 -21.5Z" stroke="#001829" fill="none" stroke-width="4"></path></g><g transform="translate(487 466)"><path d="M0 -62L53.7 -31L53.7 31L0 62L-53.7 31L-53.7 -31Z" stroke="#001829" fill="none" stroke-width="4"></path></g><g transform="translate(792 389)"><path d="M0 -71L61.5 -35.5L61.5 35.5L0 71L-61.5 35.5L-61.5 -35.5Z" stroke="#001829" fill="none" stroke-width="4"></path></g><g transform="translate(5 454)"><path d="M0 -69L59.8 -34.5L59.8 34.5L0 69L-59.8 34.5L-59.8 -34.5Z" stroke="#001829" fill="none" stroke-width="4"></path></g><g transform="translate(461 19)"><path d="M0 -67L58 -33.5L58 33.5L0 67L-58 33.5L-58 -33.5Z" stroke="#001829" fill="none" stroke-width="4"></path></g><g transform="translate(33 181)"><path d="M0 -52L45 -26L45 26L0 52L-45 26L-45 -26Z" stroke="#001829" fill="none" stroke-width="4"></path></g><g transform="translate(579 169)"><path d="M0 -61L52.8 -30.5L52.8 30.5L0 61L-52.8 30.5L-52.8 -30.5Z" stroke="#001829" fill="none" stroke-width="4"></path></g><g transform="translate(260 43)"><path d="M0 -65L56.3 -32.5L56.3 32.5L0 65L-56.3 32.5L-56.3 -32.5Z" stroke="#001829" fill="none" stroke-width="4"></path></g><g transform="translate(947 490)"><path d="M0 -68L58.9 -34L58.9 34L0 68L-58.9 34L-58.9 -34Z" stroke="#001829" fill="none" stroke-width="4"></path></g><g transform="translate(746 217)"><path d="M0 -54L46.8 -27L46.8 27L0 54L-46.8 27L-46.8 -27Z" stroke="#001829" fill="none" stroke-width="4"></path></g><g transform="translate(594 349)"><path d="M0 -53L45.9 -26.5L45.9 26.5L0 53L-45.9 26.5L-45.9 -26.5Z" stroke="#001829" fill="none" stroke-width="4"></path></g></g></svg>