<svg id="visual" viewBox="0 0 960 540" width="960" height="540" xmlns="http://www.w3.org/2000/svg" xmlns:xlink="http://www.w3.org/1999/xlink" version="1.1"><rect width="960" height="540" fill="#001220"></rect><g><g transform="translate(373 312)"><path d="M0 -89.8L77.8 -44.9L77.8 44.9L0 89.8L-77.8 44.9L-77.8 -44.9Z" fill="none" stroke="#009473" stroke-width="1"></path></g><g transform="translate(689 299)"><path d="M0 -72L62.4 -36L62.4 36L0 72L-62.4 36L-62.4 -36Z" fill="none" stroke="#009473" stroke-width="1"></path></g><g transform="translate(771 45)"><path d="M0 -50L43.3 -25L43.3 25L0 50L-43.3 25L-43.3 -25Z" fill="none" stroke="#009473" stroke-width="1"></path></g><g transform="translate(938 383)"><path d="M0 -63L54.6 -31.5L54.6 31.5L0 63L-54.6 31.5L-54.6 -31.5Z" stroke="#009473" fill="none" stroke-width="1"></path></g><g transform="translate(154 282)"><path d="M0 -87L75.3 -43.5L75.3 43.5L0 87L-75.3 43.5L-75.3 -43.5Z" stroke="#009473" fill="none" stroke-width="1"></path></g><g transform="translate(116 22)"><path d="M0 -35L30.3 -17.5L30.3 17.5L0 35L-30.3 17.5L-30.3 -17.5Z" stroke="#009473" fill="none" stroke-width="1"></path></g><g transform="translate(946 162)"><path d="M0 -70L60.6 -35L60.6 35L0 70L-60.6 35L-60.6 -35Z" stroke="#009473" fill="none" stroke-width="1"></path></g><g transform="translate(461 18)"><path d="M0 -45L39 -22.5L39 22.5L0 45L-39 22.5L-39 -22.5Z" stroke="#009473" fill="none" stroke-width="1"></path></g><g transform="translate(328 488)"><path d="M0 -34L29.4 -17L29.4 17L0 34L-29.4 17L-29.4 -17Z" stroke="#009473" fill="none" stroke-width="1"></path></g><g transform="translate(543 474)"><path d="M0 -37L32 -18.5L32 18.5L0 37L-32 18.5L-32 -18.5Z" stroke="#009473" fill="none" stroke-width="1"></path></g><g transform="translate(61 441)"><path d="M0 -48L41.6 -24L41.6 24L0 48L-41.6 24L-41.6 -24Z" stroke="#009473" fill="none" stroke-width="1"></path></g><g transform="translate(288 82)"><path d="M0 -14L12.1 -7L12.1 7L0 14L-12.1 7L-12.1 -7Z" stroke="#009473" fill="none" stroke-width="1"></path></g><g transform="translate(751 497)"><path d="M0 -82L71 -41L71 41L0 82L-71 41L-71 -41Z" stroke="#009473" fill="none" stroke-width="1"></path></g><g transform="translate(549 183)"><path d="M0 -82L71 -41L71 41L0 82L-71 41L-71 -41Z" stroke="#009473" fill="none" stroke-width="1"></path></g></g></svg>