<svg id="visual" viewBox="0 0 960 300" width="960" height="300" xmlns="http://www.w3.org/2000/svg" xmlns:xlink="http://www.w3.org/1999/xlink" version="1.1"><rect x="0" y="0" width="960" height="300" fill="#001220"></rect><path d="M0 191L13.3 189.7C26.7 188.3 53.3 185.7 80 185.8C106.7 186 133.3 189 160 191.8C186.7 194.7 213.3 197.3 240 201.3C266.7 205.3 293.3 210.7 320 216C346.7 221.3 373.3 226.7 400 221.3C426.7 216 453.3 200 480 194.7C506.7 189.3 533.3 194.7 560 197.3C586.7 200 613.3 200 640 198.7C666.7 197.3 693.3 194.7 720 195.2C746.7 195.7 773.3 199.3 800 203.5C826.7 207.7 853.3 212.3 880 215.8C906.7 219.3 933.3 221.7 946.7 222.8L960 224L960 0L946.7 0C933.3 0 906.7 0 880 0C853.3 0 826.7 0 800 0C773.3 0 746.7 0 720 0C693.3 0 666.7 0 640 0C613.3 0 586.7 0 560 0C533.3 0 506.7 0 480 0C453.3 0 426.7 0 400 0C373.3 0 346.7 0 320 0C293.3 0 266.7 0 240 0C213.3 0 186.7 0 160 0C133.3 0 106.7 0 80 0C53.3 0 26.7 0 13.3 0L0 0Z" fill="#001122"></path><path d="M0 152L13.3 158.7C26.7 165.3 53.3 178.7 80 181.3C106.7 184 133.3 176 160 170.8C186.7 165.7 213.3 163.3 240 161.8C266.7 160.3 293.3 159.7 320 160.7C346.7 161.7 373.3 164.3 400 162.8C426.7 161.3 453.3 155.7 480 153C506.7 150.3 533.3 150.7 560 157.2C586.7 163.7 613.3 176.3 640 177.8C666.7 179.3 693.3 169.7 720 166.3C746.7 163 773.3 166 800 170.5C826.7 175 853.3 181 880 184.2C906.7 187.3 933.3 187.7 946.7 187.8L960 188L960 0L946.7 0C933.3 0 906.7 0 880 0C853.3 0 826.7 0 800 0C773.3 0 746.7 0 720 0C693.3 0 666.7 0 640 0C613.3 0 586.7 0 560 0C533.3 0 506.7 0 480 0C453.3 0 426.7 0 400 0C373.3 0 346.7 0 320 0C293.3 0 266.7 0 240 0C213.3 0 186.7 0 160 0C133.3 0 106.7 0 80 0C53.3 0 26.7 0 13.3 0L0 0Z" fill="#022f42"></path><path d="M0 130L13.3 133C26.7 136 53.3 142 80 144C106.7 146 133.3 144 160 138.2C186.7 132.3 213.3 122.7 240 118.8C266.7 115 293.3 117 320 120.5C346.7 124 373.3 129 400 132.5C426.7 136 453.3 138 480 138.2C506.7 138.3 533.3 136.7 560 133.3C586.7 130 613.3 125 640 126.8C666.7 128.7 693.3 137.3 720 138.7C746.7 140 773.3 134 800 131.3C826.7 128.7 853.3 129.3 880 130.8C906.7 132.3 933.3 134.7 946.7 135.8L960 137L960 0L946.7 0C933.3 0 906.7 0 880 0C853.3 0 826.7 0 800 0C773.3 0 746.7 0 720 0C693.3 0 666.7 0 640 0C613.3 0 586.7 0 560 0C533.3 0 506.7 0 480 0C453.3 0 426.7 0 400 0C373.3 0 346.7 0 320 0C293.3 0 266.7 0 240 0C213.3 0 186.7 0 160 0C133.3 0 106.7 0 80 0C53.3 0 26.7 0 13.3 0L0 0Z" fill="#005060"></path><path d="M0 84L13.3 85.7C26.7 87.3 53.3 90.7 80 93.5C106.7 96.3 133.3 98.7 160 97.2C186.7 95.7 213.3 90.3 240 89C266.7 87.7 293.3 90.3 320 93.3C346.7 96.3 373.3 99.7 400 96.7C426.7 93.7 453.3 84.3 480 81.7C506.7 79 533.3 83 560 86C586.7 89 613.3 91 640 89C666.7 87 693.3 81 720 81.2C746.7 81.3 773.3 87.7 800 88.8C826.7 90 853.3 86 880 86.5C906.7 87 933.3 92 946.7 94.5L960 97L960 0L946.7 0C933.3 0 906.7 0 880 0C853.3 0 826.7 0 800 0C773.3 0 746.7 0 720 0C693.3 0 666.7 0 640 0C613.3 0 586.7 0 560 0C533.3 0 506.7 0 480 0C453.3 0 426.7 0 400 0C373.3 0 346.7 0 320 0C293.3 0 266.7 0 240 0C213.3 0 186.7 0 160 0C133.3 0 106.7 0 80 0C53.3 0 26.7 0 13.3 0L0 0Z" fill="#007274"></path><path d="M0 56L13.3 53.2C26.7 50.3 53.3 44.7 80 41.2C106.7 37.7 133.3 36.3 160 40C186.7 43.7 213.3 52.3 240 55.8C266.7 59.3 293.3 57.7 320 56.5C346.7 55.3 373.3 54.7 400 53.7C426.7 52.7 453.3 51.3 480 48.7C506.7 46 533.3 42 560 43C586.7 44 613.3 50 640 51.5C666.7 53 693.3 50 720 49.3C746.7 48.7 773.3 50.3 800 48.2C826.7 46 853.3 40 880 41.3C906.7 42.7 933.3 51.3 946.7 55.7L960 60L960 0L946.7 0C933.3 0 906.7 0 880 0C853.3 0 826.7 0 800 0C773.3 0 746.7 0 720 0C693.3 0 666.7 0 640 0C613.3 0 586.7 0 560 0C533.3 0 506.7 0 480 0C453.3 0 426.7 0 400 0C373.3 0 346.7 0 320 0C293.3 0 266.7 0 240 0C213.3 0 186.7 0 160 0C133.3 0 106.7 0 80 0C53.3 0 26.7 0 13.3 0L0 0Z" fill="#009473"></path></svg>