<svg id="visual" viewBox="0 0 960 540" width="960" height="540" xmlns="http://www.w3.org/2000/svg" xmlns:xlink="http://www.w3.org/1999/xlink" version="1.1"><rect width="960" height="540" fill="#009473"></rect><g><g transform="translate(472 492)"><path d="M0 -75.7L65.5 -37.8L65.5 37.8L0 75.7L-65.5 37.8L-65.5 -37.8Z" stroke="#001829" fill="none" stroke-width="4"></path></g><g transform="translate(646 19)"><path d="M0 -51L44.2 -25.5L44.2 25.5L0 51L-44.2 25.5L-44.2 -25.5Z" stroke="#001829" fill="none" stroke-width="4"></path></g><g transform="translate(811 264)"><path d="M0 -65L56.3 -32.5L56.3 32.5L0 65L-56.3 32.5L-56.3 -32.5Z" stroke="#001829" fill="none" stroke-width="4"></path></g><g transform="translate(432 245)"><path d="M0 -72L62.4 -36L62.4 36L0 72L-62.4 36L-62.4 -36Z" stroke="#001829" fill="none" stroke-width="4"></path></g><g transform="translate(847 471)"><path d="M0 -37L32 -18.5L32 18.5L0 37L-32 18.5L-32 -18.5Z" stroke="#001829" fill="none" stroke-width="4"></path></g><g transform="translate(458 70)"><path d="M0 -69L59.8 -34.5L59.8 34.5L0 69L-59.8 34.5L-59.8 -34.5Z" stroke="#001829" fill="none" stroke-width="4"></path></g><g transform="translate(147 503)"><path d="M0 -49L42.4 -24.5L42.4 24.5L0 49L-42.4 24.5L-42.4 -24.5Z" stroke="#001829" fill="none" stroke-width="4"></path></g><g transform="translate(232 334)"><path d="M0 -48L41.6 -24L41.6 24L0 48L-41.6 24L-41.6 -24Z" stroke="#001829" fill="none" stroke-width="4"></path></g><g transform="translate(691 431)"><path d="M0 -61L52.8 -30.5L52.8 30.5L0 61L-52.8 30.5L-52.8 -30.5Z" stroke="#001829" fill="none" stroke-width="4"></path></g><g transform="translate(118 171)"><path d="M0 -72L62.4 -36L62.4 36L0 72L-62.4 36L-62.4 -36Z" stroke="#001829" fill="none" stroke-width="4"></path></g><g transform="translate(908 121)"><path d="M0 -62L53.7 -31L53.7 31L0 62L-53.7 31L-53.7 -31Z" stroke="#001829" fill="none" stroke-width="4"></path></g><g transform="translate(264 4)"><path d="M0 -47L40.7 -23.5L40.7 23.5L0 47L-40.7 23.5L-40.7 -23.5Z" stroke="#001829" fill="none" stroke-width="4"></path></g><g transform="translate(592 298)"><path d="M0 -46L39.8 -23L39.8 23L0 46L-39.8 23L-39.8 -23Z" stroke="#001829" fill="none" stroke-width="4"></path></g><g transform="translate(318 478)"><path d="M0 -66L57.2 -33L57.2 33L0 66L-57.2 33L-57.2 -33Z" stroke="#001829" fill="none" stroke-width="4"></path></g><g transform="translate(58 377)"><path d="M0 -55L47.6 -27.5L47.6 27.5L0 55L-47.6 27.5L-47.6 -27.5Z" stroke="#001829" fill="none" stroke-width="4"></path></g></g></svg>